<svg xmlns="http://www.w3.org/2000/svg" width="36" height="36" viewBox="0 0 36 36">
  <g data-name="Сгруппировать 29" transform="translate(-109 -2579)">
    <circle data-name="Эллипс 7" cx="18" cy="18" r="18" transform="translate(109 2579)" fill="#4d76a1"/>
    <path data-name="Фигура 17" d="M139.4,2591.016c.18-.585,0-1.016-.861-1.016H135.7a1.228,1.228,0,0,0-1.238.782,22.977,22.977,0,0,1-3.495,5.649c-.663.643-.964.849-1.326.849-.181,0-.443-.2-.443-.791v-5.474c0-.7-.21-1.016-.812-1.016h-4.469a.678.678,0,0,0-.724.635c0,.666,1.025.82,1.13,2.693v4.069c0,.893-.166,1.054-.527,1.054-.964,0-3.309-3.44-4.7-7.377-.271-.766-.545-1.075-1.272-1.075h-2.845c-.812,0-.975.372-.975.782,0,.731.964,4.361,4.49,9.162,2.351,3.279,5.66,5.056,8.675,5.056,1.808,0,2.031-.394,2.031-1.074v-2.478c0-.79.171-.947.744-.947.422,0,1.145.206,2.833,1.786,1.928,1.874,2.246,2.714,3.331,2.714h2.844c.812,0,1.22-.394.986-1.173a11.924,11.924,0,0,0-2.4-3.239c-.663-.761-1.657-1.581-1.959-1.991-.422-.526-.3-.761,0-1.229,0,0,3.464-4.742,3.826-6.352Z" fill="#fff"/>
  </g>
</svg>
