<?xml version="1.0" encoding="utf-8"?>
<!-- Generator: Adobe Illustrator 15.1.0, SVG Export Plug-In . SVG Version: 6.00 Build 0)  -->
<!DOCTYPE svg PUBLIC "-//W3C//DTD SVG 1.1//EN" "http://www.w3.org/Graphics/SVG/1.1/DTD/svg11.dtd">
<svg version="1.1" id="Layer_1" xmlns="http://www.w3.org/2000/svg" xmlns:xlink="http://www.w3.org/1999/xlink" x="0px" y="0px"
	 width="790.555px" height="200.246px" viewBox="0 0 790.555 200.246" enable-background="new 0 0 790.555 200.246"
	 xml:space="preserve">
<g>
	<polygon fill="#282828" points="173.247,48.976 196.647,48.976 196.647,39.904 173.247,39.904 173.247,28.96 199.743,28.96 
		199.743,19.6 161.655,19.6 161.655,70 200.679,70 200.679,60.64 173.247,60.64 	"/>
	<polygon fill="#282828" points="110.627,29.104 126.683,29.104 126.683,70 138.203,70 138.203,29.104 154.331,29.104 154.331,19.6 
		110.627,19.6 	"/>
	<path fill="#282828" d="M84.906,46.691L71.533,19.6H59.077l19.841,36.982l-0.399,0.602c-1.488,2.304-3.188,3.647-5.112,4.031
		c-1.866,0.336-4.194,0.097-6.979-0.72l-2.813,8.855c3.36,1.393,6.604,1.943,9.726,1.655c3.12-0.239,5.979-1.319,8.563-3.239
		c2.646-1.92,4.92-4.681,6.846-8.279l21.45-39.888h-11.45L84.906,46.691z"/>
	<polygon fill="#282828" points="6.264,70 17.856,70 17.856,29.104 40.608,29.104 40.608,70 52.2,70 52.2,19.6 6.264,19.6 	"/>
	<polygon fill="#282828" points="265.036,60.496 249.196,60.496 249.196,19.6 237.604,19.6 237.604,60.496 221.692,60.496 
		221.692,19.6 210.1,19.6 210.1,70 276.628,70 276.628,19.6 265.036,19.6 	"/>
	<path fill="#282828" d="M551.836,13.48c2.256,1.92,5.775,2.88,10.584,2.88c4.752,0,8.256-0.96,10.512-2.88s3.408-4.632,3.456-8.137
		h-7.992c-0.048,1.729-0.576,3.049-1.584,3.961c-1.008,0.863-2.472,1.296-4.392,1.296c-1.977,0-3.456-0.433-4.473-1.296
		c-0.96-0.912-1.464-2.231-1.512-3.961h-7.992C548.491,8.848,549.626,11.56,551.836,13.48z"/>
	<path fill="#282828" d="M508.323,46.691L494.949,19.6h-12.448l19.842,36.981l-0.401,0.603c-1.488,2.304-3.192,3.647-5.112,4.031
		c-1.872,0.336-4.191,0.097-6.979-0.72l-2.813,8.855c3.36,1.393,6.604,1.943,9.729,1.655c3.12-0.239,5.976-1.319,8.563-3.239
		c2.646-1.92,4.921-4.681,6.843-8.279L533.615,19.6h-11.439L508.323,46.691z"/>
	<path fill="#282828" d="M474.907,46.024c-1.347-0.975-2.938-1.726-4.769-2.277c0.883-0.42,1.705-0.908,2.465-1.465
		c3.072-2.305,4.608-5.521,4.608-9.648c0-4.176-1.638-7.392-4.896-9.647c-3.264-2.256-7.824-3.384-13.68-3.384h-23.473V70h24.843
		c6.384,0,11.229-1.248,14.544-3.744c3.354-2.544,5.04-6.023,5.04-10.439C479.594,51.544,478.031,48.281,474.907,46.024z
		 M446.762,28.24h10.872c2.544,0,4.464,0.527,5.76,1.584c1.296,1.008,1.944,2.52,1.944,4.535c0,2.017-0.648,3.553-1.944,4.607
		c-1.296,1.009-3.216,1.513-5.76,1.513h-10.872V28.24z M465.698,59.776c-1.392,1.057-3.432,1.584-6.12,1.584h-12.813V48.616h12.813
		c2.688,0,4.729,0.527,6.12,1.584c1.396,1.008,2.088,2.567,2.088,4.68C467.781,57.088,467.092,58.719,465.698,59.776z"/>
	<polygon fill="#282828" points="300.723,48.976 324.116,48.976 324.116,39.904 300.723,39.904 300.723,28.96 327.219,28.96 
		327.219,19.6 289.131,19.6 289.131,70 328.155,70 328.155,60.64 300.723,60.64 	"/>
	<polygon fill="#282828" points="574.802,19.6 550.756,52.432 550.756,19.6 539.156,19.6 539.156,70 550.178,70 574.226,37.24 
		574.226,70 585.74,70 585.74,19.6 	"/>
	<polygon fill="#282828" points="384.143,29.104 400.198,29.104 400.198,70 411.719,70 411.719,29.104 427.847,29.104 427.847,19.6 
		384.143,19.6 	"/>
	<path fill="#282828" d="M350.467,33.135c1.438-1.439,3.144-2.544,5.104-3.312c1.977-0.769,4.128-1.152,6.48-1.152
		c2.496,0,4.8,0.504,6.912,1.513c2.104,0.96,4.025,2.424,5.76,4.393l7.488-6.912c-2.4-2.929-5.376-5.137-8.937-6.624
		c-3.504-1.536-7.438-2.305-11.808-2.305c-3.938,0-7.563,0.647-10.872,1.944c-3.313,1.247-6.216,3.048-8.713,5.399
		c-2.447,2.353-4.367,5.111-5.762,8.279c-1.349,3.168-2.021,6.647-2.021,10.439s0.673,7.272,2.021,10.44
		c1.395,3.168,3.313,5.928,5.762,8.279c2.447,2.353,5.329,4.176,8.641,5.473c3.36,1.248,6.984,1.872,10.872,1.872
		c4.416,0,8.376-0.77,11.88-2.305c3.561-1.536,6.528-3.769,8.937-6.695l-7.488-6.912c-1.729,2.016-3.648,3.527-5.76,4.535
		c-2.112,0.961-4.416,1.439-6.912,1.439c-2.354,0-4.518-0.384-6.48-1.151c-1.964-0.769-3.672-1.872-5.104-3.313
		c-1.44-1.439-2.568-3.145-3.393-5.111c-0.768-1.969-1.146-4.151-1.146-6.553c0-2.4,0.384-4.584,1.146-6.552
		C347.897,36.281,349.025,34.576,350.467,33.135z"/>
</g>
<path fill="#0499DD" d="M567.17,77.312l0.313-1.279c0.085-0.3,0.149-0.704,0.192-1.217c0.128-0.427,0.229-0.896,0.313-1.407
	c0.175-1.536,0.175-2.796,0-3.776c-0.129-0.938-0.3-1.685-0.513-2.239c-0.299-0.684-0.619-1.151-0.96-1.408
	c-0.641-0.341-1.173,0.063-1.602,1.217c-0.433,1.108-0.788,2.581-1.09,4.416c-0.216,2.005-0.389,4.159-0.517,6.464
	c-0.128,2.433-0.171,4.734-0.128,6.913c0.256-0.215,0.533-0.535,0.832-0.961c0.341-0.343,0.66-0.769,0.96-1.279
	C565.931,81.088,566.656,79.275,567.17,77.312z M568.064,93.057c0.171,0.17,0.427,0.213,0.769,0.127
	c0.221-0.084,0.404-0.272,0.575-0.576c0.171-0.297,0.363-0.655,0.576-1.088c-0.427-0.299-0.853-0.533-1.28-0.703
	c-0.427-0.17-0.725-0.146-0.896,0.063c-0.128,0.172-0.192,0.406-0.192,0.705c-0.043,0.299-0.021,0.576,0.064,0.832
	C567.765,92.714,567.893,92.927,568.064,93.057z M575.68,85.63c0.085,1.537-0.107,3.139-0.576,4.803
	c-0.213,0.854-0.427,1.533-0.64,2.049c0.299,0,0.567-0.17,0.832-0.516c0.427-0.512,0.853-1.088,1.271-1.727
	c0.386-0.6,0.747-1.195,1.088-1.793c0.308-0.557,0.576-1.09,0.832-1.602c0.214-0.473,0.393-0.832,0.521-1.092
	c0.085-0.213,0.213-0.273,0.384-0.188h0.128c0.213,0.084,0.363,0.216,0.448,0.386c0.043,0.17,0.021,0.36-0.064,0.573
	c-1.151,2.604-2.261,4.649-3.328,6.146c-0.341,0.558-0.704,0.916-1.088,1.088c-0.384,0.216-0.768,0.345-1.151,0.388
	c-0.385,0-0.684-0.043-0.896-0.129l-0.384,0.444l-0.448,0.449c-0.469,0.383-0.96,0.684-1.472,0.896
	c-0.478,0.213-0.981,0.34-1.536,0.383c-0.597,0.043-1.216-0.104-1.856-0.443c-0.341-0.17-0.617-0.389-0.832-0.645
	c-0.213-0.213-0.396-0.516-0.567-0.896c-0.18-0.342-0.277-0.748-0.32-1.217c-0.043-0.431-0.021-0.896,0.063-1.408
	c0.045-0.513,0.264-1.045,0.646-1.603c0.469-0.728,1.021-1.002,1.664-0.832c0.64,0.175,1.317,0.515,2.048,1.021l0.256-1.088
	c0.043-0.34,0.106-0.641,0.191-0.896c0.214-1.104,0.313-2.005,0.313-2.688c0-0.256-0.021-0.514-0.063-0.77
	c-0.085-0.979-0.235-1.729-0.448-2.238c-0.299-0.644-0.661-1.023-1.088-1.152c-0.688,0.043-1.28,0.363-1.792,0.96
	c-0.516,0.559-0.939,1.176-1.28,1.854c-0.299,0.687-0.533,1.365-0.704,2.052c-0.171,0.639-0.271,1.063-0.313,1.276
	c-0.604,1.92-0.788,4.545-0.575,7.871c0,0.172-0.085,0.342-0.256,0.517c-0.173,0.127-0.393,0.188-0.646,0.188
	c-0.853-0.043-1.515-0.231-1.979-0.575c-0.478-0.386-0.813-0.746-1.024-1.088c-0.299-0.474-0.491-0.979-0.576-1.537
	c-0.256-1.621-0.439-2.365-0.571-2.235c-0.13,0.127-0.173-0.619-0.13-2.24c-0.979,0.17-1.896,0.17-2.755,0
	c-0.256-0.043-0.384-0.299-0.384-0.771c0.085-0.603,0.256-0.854,0.517-0.771c0.345,0.041,0.687,0.086,1.021,0.129
	c0.341-0.043,0.661-0.086,0.96-0.129c0.256-0.043,0.491-0.063,0.704-0.063c0-0.896,0.021-1.646,0.063-2.237V81.34
	c0.044-1.919,0.146-3.753,0.316-5.503c0.171-1.877,0.469-3.669,0.896-5.376c0.384-1.621,0.917-3.071,1.6-4.353
	c0.384-0.854,0.813-1.492,1.28-1.92c0.427-0.341,0.832-0.598,1.216-0.769c0.384-0.085,0.725-0.105,1.023-0.063
	c0.3,0.043,0.513,0.128,0.641,0.257c0.938,0.341,1.685,1.216,2.24,2.624c0.469,1.364,0.703,2.794,0.703,4.287
	c-0.05,1.536-0.221,3.094-0.52,4.673c-0.256,1.492-0.661,2.9-1.216,4.224c-0.213,0.513-0.427,1.024-0.64,1.537
	c0.256-0.299,0.512-0.533,0.768-0.705c0.813-0.597,1.835-0.832,3.072-0.704c1.188,0.128,2.152,0.684,2.88,1.665
	c0.725,0.979,1.216,2.155,1.472,3.521C575.656,85.037,575.68,85.333,575.68,85.63z M580.3,91.839
	c0.085-0.768,0.043-1.32-0.128-1.664c-0.137-0.299-0.308-0.488-0.521-0.574c-0.085,0.854-0.128,1.533-0.128,2.049
	c0.043,0.561,0.149,0.854,0.32,0.896c0.171,0,0.299-0.104,0.384-0.317L580.3,91.839z M586.442,75.84c1.451,0,2.453,0.428,3.008,1.28
	c0.604,0.812,0.981,1.664,1.152,2.561c0.512-1.023,1.152-1.921,1.92-2.688c0.811-0.769,1.813-1.152,3.008-1.152
	c1.28,0,2.219,0.342,2.816,1.024c0.597,0.683,1.003,1.429,1.216,2.239c0.213,0.98,0.277,2.068,0.192,3.265
	c-0.086,1.192-0.18,2.389-0.265,3.584c-0.085,1.192-0.146,2.305-0.188,3.325c0,0.979,0.021,1.796,0.063,2.435
	c0.043,0.603,0.128,0.918,0.256,0.961c0.478-0.469,0.92-1.045,1.353-1.729c0.469-0.684,0.896-1.344,1.272-1.979
	c0.392-0.688,0.703-1.301,0.961-1.854c0.263-0.56,0.446-0.961,0.574-1.217c0.085-0.215,0.235-0.276,0.448-0.19h0.128
	c0.213,0.086,0.341,0.213,0.384,0.385c0.085,0.17,0.085,0.361,0,0.576c-1.021,2.26-1.979,4.071-2.88,5.438
	c-0.853,1.317-1.664,2.306-2.432,2.938c-0.729,0.646-1.433,0.979-2.112,1.021c-0.683,0.041-1.344-0.129-1.979-0.516
	c-0.729-0.426-1.236-1.191-1.535-2.303c-0.306-1.152-0.491-2.391-0.576-3.713c-0.085-1.365-0.107-2.709-0.064-4.031
	c0.085-1.363,0.172-2.477,0.263-3.328c0.13-0.938,0.146-1.58,0.063-1.92c-0.085-0.384-0.235-0.597-0.448-0.64
	c-0.299-0.044-0.619,0.298-0.96,1.021c-0.299,0.726-0.597,1.601-0.896,2.62c-0.256,0.982-0.491,2.027-0.704,3.141
	c-0.171,1.063-0.277,1.963-0.32,2.688v0.32c0,0.086,0,0.213,0,0.385c0,0.17-0.021,0.359-0.063,0.576
	c0,0.297-0.043,0.658-0.128,1.088c-0.089,0.383-0.222,0.771-0.393,1.148c-0.128,0.344-0.313,0.643-0.574,0.896
	c-0.258,0.256-0.569,0.402-0.962,0.448c-0.896,0.085-1.6-0.087-2.104-0.517c-0.472-0.473-0.832-0.979-1.088-1.535
	c-0.306-0.645-0.478-1.361-0.521-2.178c-0.171-1.449-0.229-2.813-0.188-4.098c0.043-1.322,0.085-2.477,0.128-3.457
	c0.128-0.938,0.146-1.6,0.063-1.982c-0.043-0.257-0.104-0.49-0.188-0.704c-0.085-0.256-0.213-0.513-0.384-0.769
	c-0.177-0.17-0.32-0.213-0.448-0.128c-0.341,0.171-0.688,0.576-1.024,1.216c-0.299,0.642-0.597,1.388-0.896,2.241
	c-0.3,0.896-0.576,1.834-0.832,2.813c-0.213,1.021-0.405,2.006-0.576,2.939c0.896,0.26,1.519,0.813,1.856,1.664
	c0.384,0.896,0.524,1.834,0.439,2.813c-0.043,0.979-0.271,1.854-0.703,2.625c-0.428,0.771-1.004,1.149-1.729,1.149
	c-0.597,0-1.045-0.258-1.344-0.771c-0.26-0.472-0.436-1.045-0.521-1.729c-0.085-0.642-0.128-1.301-0.128-1.98
	c0.043-0.688,0.085-1.217,0.128-1.604c-0.341,0.387-0.597,0.875-0.768,1.475c-0.171,0.643-0.3,1.135-0.384,1.475
	c-0.087,0.299-0.235,0.342-0.448,0.129l-0.064-0.129c-0.427-0.686-0.525-1.449-0.313-2.305c0.171-0.561,0.427-1.107,0.768-1.662
	c0.341-0.561,0.854-0.939,1.536-1.152c0.469-2.939,1.023-5.229,1.664-6.848c0.641-1.58,1.259-2.731,1.854-3.457
	c0.729-0.896,1.476-1.408,2.235-1.536C584.716,75.84,585.505,75.797,586.442,75.84z M620.279,85.695
	c0.213,0.088,0.341,0.217,0.384,0.387c0.085,0.172,0.085,0.361,0,0.576c-0.47,1.021-0.918,1.963-1.344,2.814
	c-0.427,0.813-0.832,1.529-1.216,2.176c-0.726,1.104-1.558,2.047-2.496,2.813c-0.811,0.645-1.792,1.152-2.944,1.535
	c-1.146,0.428-2.475,0.402-3.968-0.063c-0.811-0.258-1.643-0.771-2.496-1.535c-0.811-0.771-1.494-1.729-2.048-2.881
	c-0.555-1.148-0.918-2.453-1.089-3.9c-0.17-1.494,0-3.098,0.513-4.803c0.478-1.664,1.066-2.942,1.792-3.839
	c0.771-0.938,1.521-1.644,2.24-2.111c0.813-0.513,1.664-0.813,2.563-0.896c1.063-0.085,1.963,0.043,2.688,0.385
	c0.729,0.299,1.322,0.684,1.792,1.151c0.384,0.428,0.683,0.875,0.896,1.345c0.213,0.427,0.313,0.917,0.313,1.47
	c0.042,0.559-0.086,1.195-0.384,1.924c-0.342,0.768-0.832,1.404-1.472,1.92c-0.563,0.469-1.311,0.854-2.24,1.147
	c-0.939,0.256-2.134,0.274-3.584,0.063c0,0.127-0.021,0.256-0.064,0.383c0,0.129,0,0.26,0,0.387
	c-0.086,1.406-0.043,2.688,0.131,3.84c0.175,0.979,0.487,1.922,0.962,2.813c0.473,0.854,1.22,1.324,2.235,1.408
	c0.729,0.086,1.408-0.043,2.048-0.383c0.688-0.345,1.28-0.748,1.792-1.22c0.604-0.515,1.182-1.106,1.729-1.791
	c0.64-0.979,1.19-1.938,1.664-2.881c0.512-0.979,0.853-1.664,1.021-2.05c0.085-0.213,0.234-0.274,0.448-0.19L620.279,85.695
	L620.279,85.695z M614.135,78.592c-0.299-0.298-0.704-0.384-1.216-0.256c-0.521,0.128-1.055,0.448-1.604,0.96
	c-0.555,0.47-1.088,1.109-1.6,1.919c-0.521,0.771-0.918,1.664-1.217,2.688c0.385,0.091,0.811,0.134,1.272,0.134
	c0.47,0,0.938-0.063,1.408-0.193c0.512-0.127,0.979-0.297,1.408-0.512c0.469-0.256,0.874-0.619,1.216-1.088
	c0.384-0.559,0.618-1.049,0.704-1.475c0.128-0.471,0.146-0.875,0.063-1.218C614.49,79.168,614.348,78.848,614.135,78.592z
	 M630.198,83.134c-0.512,0-0.96-0.127-1.344-0.383c-0.256-0.172-0.299-0.385-0.128-0.643c0.384-0.512,0.618-0.959,0.704-1.344
	c0.128-0.387,0.188-0.706,0.188-0.959c0-0.3-0.063-0.576-0.188-0.832c-0.427-0.257-0.918-0.276-1.479-0.063
	c-0.556,0.17-1.104,0.555-1.657,1.151c-0.52,0.598-0.981,1.407-1.407,2.434c-0.384,1.021-0.646,2.238-0.771,3.646
	c-0.043,1.404,0.021,2.688,0.192,3.84c0.17,0.979,0.49,1.92,0.96,2.813c0.469,0.854,1.193,1.324,2.176,1.408
	c0.729,0.086,1.408-0.043,2.048-0.385c0.688-0.344,1.28-0.746,1.792-1.219c0.604-0.514,1.18-1.105,1.729-1.791
	c0.682-0.979,1.258-1.938,1.728-2.883c0.478-0.979,0.789-1.662,0.96-2.047c0.17-0.172,0.32-0.232,0.448-0.189h0.128
	c0.213,0.084,0.341,0.213,0.384,0.387c0.085,0.17,0.085,0.359,0,0.572c-0.47,1.021-0.918,1.965-1.344,2.814
	c-0.427,0.813-0.832,1.535-1.216,2.178c-0.683,1.105-1.494,2.047-2.433,2.813c-0.813,0.641-1.813,1.151-3.016,1.537
	c-1.146,0.426-2.475,0.401-3.968-0.064c-0.811-0.256-1.622-0.768-2.432-1.532c-0.813-0.771-1.494-1.729-2.049-2.884
	c-0.563-1.145-0.923-2.45-1.094-3.899c-0.173-1.491-0.021-3.094,0.446-4.801c0.471-1.664,1.064-2.941,1.792-3.841
	c0.771-0.938,1.516-1.643,2.24-2.111c0.811-0.513,1.664-0.813,2.561-0.896c1.108-0.085,2.006,0.043,2.688,0.384
	c0.725,0.3,1.318,0.685,1.792,1.152c0.384,0.427,0.682,0.875,0.896,1.344c0.214,0.428,0.319,0.917,0.319,1.473
	c0.042,0.557-0.086,1.194-0.385,1.919C631.18,82.835,630.755,83.134,630.198,83.134z M649.655,90.369
	c0,0.299-0.043,0.658-0.128,1.088c-0.086,0.385-0.214,0.771-0.384,1.148c-0.128,0.346-0.32,0.645-0.576,0.896
	s-0.576,0.404-0.96,0.447c-0.896,0.086-1.6-0.084-2.112-0.516c-0.47-0.473-0.832-0.979-1.088-1.535
	c-0.299-0.645-0.47-1.361-0.512-2.176c-0.171-1.451-0.235-2.813-0.192-4.102c0.042-1.32,0.085-2.477,0.128-3.455
	c0.137-0.938,0.149-1.58,0.064-1.92c-0.086-0.384-0.235-0.597-0.448-0.64c-0.299-0.044-0.598,0.275-0.896,0.96
	c-0.299,0.683-0.604,1.515-0.896,2.494c-0.256,0.979-0.491,2.006-0.704,3.07c-0.171,1.064-0.271,1.982-0.313,2.752
	c-0.086,1.32-0.15,2.604-0.192,3.842c0,1.191,0,2.222,0,3.068c0,0.559-0.274,0.832-0.832,0.832
	c-1.664-0.129-2.813-0.979-3.456-2.561c-0.64-1.58-0.979-3.648-1.021-6.209c-0.086-1.451-0.107-2.859-0.065-4.229
	c0-1.406,0.043-2.54,0.129-3.393c0.128-1.109,0.604-2.026,1.408-2.752c0.47-0.384,1.002-0.747,1.604-1.088
	c0.642-0.385,1.486-0.599,2.562-0.642c0.341,0,0.514,0.171,0.514,0.514c-0.044,0.469-0.104,1.557-0.188,3.264
	c0.513-0.981,1.148-1.834,1.92-2.56c0.813-0.77,1.813-1.152,3.009-1.152c1.449,0,2.453,0.427,3.009,1.28
	c0.602,0.811,0.979,1.664,1.15,2.56c0.513-1.023,1.15-1.92,1.921-2.688c0.813-0.77,1.813-1.152,3.008-1.152
	c1.28,0,2.223,0.341,2.815,1.022c0.598,0.685,1.002,1.431,1.217,2.24c0.213,0.981,0.275,2.068,0.189,3.268
	c-0.087,1.19-0.173,2.392-0.258,3.584c-0.09,1.19-0.146,2.305-0.189,3.325c0,0.979,0.021,1.793,0.063,2.437
	c0.041,0.599,0.131,0.916,0.259,0.959c0.472-0.471,0.917-1.045,1.347-1.729c0.471-0.686,0.896-1.346,1.277-1.979
	c0.387-0.687,0.701-1.302,0.961-1.854c0.258-0.555,0.443-0.961,0.571-1.217c0.085-0.213,0.234-0.275,0.448-0.189h0.128
	c0.213,0.084,0.341,0.213,0.384,0.387c0.086,0.172,0.086,0.359,0,0.572c-1.021,2.266-1.979,4.072-2.88,5.438
	c-0.854,1.324-1.664,2.307-2.433,2.944c-0.729,0.64-1.436,0.979-2.111,1.021c-0.685,0.041-1.344-0.129-1.98-0.512
	c-0.729-0.429-1.234-1.193-1.533-2.308c-0.303-1.149-0.49-2.392-0.574-3.713c-0.088-1.361-0.104-2.71-0.063-4.029
	c0.086-1.364,0.17-2.479,0.257-3.328c0.13-0.938,0.146-1.578,0.063-1.919c-0.086-0.384-0.231-0.598-0.446-0.641
	c-0.301-0.044-0.617,0.299-0.961,1.022c-0.3,0.729-0.599,1.604-0.896,2.625c-0.257,0.979-0.489,2.023-0.703,3.137
	c-0.172,1.066-0.275,1.967-0.318,2.688v0.317c0,0.084,0,0.214,0,0.386C649.733,89.955,649.697,90.158,649.655,90.369z
	 M679.904,85.695c0.213,0.088,0.341,0.217,0.384,0.387c0.085,0.172,0.085,0.361,0,0.576c-0.47,1.021-0.918,1.963-1.344,2.814
	c-0.427,0.813-0.832,1.529-1.216,2.176c-0.726,1.104-1.558,2.047-2.496,2.813c-0.811,0.645-1.792,1.152-2.944,1.535
	c-1.146,0.428-2.475,0.402-3.968-0.063c-0.811-0.258-1.643-0.771-2.496-1.535c-0.811-0.771-1.494-1.729-2.048-2.881
	c-0.555-1.148-0.918-2.453-1.088-3.9c-0.171-1.494,0-3.098,0.512-4.803c0.478-1.664,1.066-2.942,1.792-3.839
	c0.771-0.938,1.521-1.644,2.24-2.111c0.813-0.513,1.664-0.813,2.563-0.896c1.063-0.085,1.963,0.043,2.688,0.385
	c0.729,0.299,1.322,0.684,1.792,1.151c0.384,0.428,0.683,0.875,0.896,1.345c0.213,0.427,0.313,0.917,0.313,1.47
	c0.042,0.559-0.086,1.195-0.384,1.924c-0.342,0.768-0.832,1.404-1.472,1.92c-0.563,0.469-1.311,0.854-2.24,1.147
	c-0.939,0.256-2.134,0.274-3.584,0.063c0,0.127-0.021,0.256-0.064,0.383c0,0.129,0,0.26,0,0.387
	c-0.086,1.406-0.043,2.688,0.131,3.84c0.175,0.979,0.487,1.922,0.962,2.813c0.473,0.854,1.22,1.324,2.235,1.408
	c0.729,0.086,1.408-0.043,2.048-0.383c0.688-0.345,1.28-0.748,1.792-1.22c0.604-0.515,1.182-1.106,1.729-1.791
	c0.64-0.979,1.19-1.938,1.664-2.881c0.512-0.979,0.853-1.664,1.021-2.05c0.085-0.213,0.234-0.274,0.448-0.19L679.904,85.695
	L679.904,85.695z M673.76,78.592c-0.299-0.298-0.704-0.384-1.216-0.256c-0.521,0.128-1.055,0.448-1.604,0.96
	c-0.555,0.47-1.088,1.109-1.6,1.919c-0.521,0.771-0.918,1.664-1.217,2.688c0.385,0.091,0.811,0.134,1.272,0.134
	c0.47,0,0.938-0.063,1.408-0.193c0.512-0.127,0.979-0.297,1.408-0.512c0.469-0.256,0.874-0.619,1.216-1.088
	c0.384-0.559,0.618-1.049,0.704-1.475c0.128-0.471,0.146-0.875,0.063-1.218C674.115,79.168,673.973,78.848,673.76,78.592z
	 M705.823,83.134c-0.512,0-0.96-0.127-1.344-0.383c-0.256-0.172-0.299-0.385-0.128-0.643c0.384-0.512,0.618-0.959,0.704-1.344
	c0.128-0.387,0.188-0.706,0.188-0.959c0-0.3-0.063-0.576-0.188-0.832c-0.427-0.257-0.918-0.276-1.479-0.063
	c-0.556,0.17-1.104,0.555-1.657,1.151c-0.52,0.598-0.981,1.407-1.407,2.434c-0.384,1.021-0.646,2.238-0.771,3.646
	c-0.043,1.404,0.021,2.688,0.192,3.84c0.17,0.979,0.49,1.92,0.96,2.813c0.469,0.854,1.193,1.324,2.176,1.408
	c0.729,0.086,1.408-0.043,2.048-0.385c0.688-0.344,1.28-0.746,1.792-1.219c0.604-0.514,1.18-1.105,1.729-1.791
	c0.682-0.979,1.258-1.938,1.728-2.883c0.478-0.979,0.789-1.662,0.96-2.047c0.17-0.172,0.32-0.232,0.448-0.189h0.128
	c0.213,0.084,0.341,0.213,0.384,0.387c0.085,0.17,0.085,0.359,0,0.572c-0.47,1.021-0.918,1.965-1.344,2.814
	c-0.427,0.813-0.832,1.535-1.216,2.178c-0.683,1.105-1.494,2.047-2.433,2.813c-0.813,0.641-1.813,1.151-3.016,1.537
	c-1.146,0.426-2.475,0.401-3.968-0.064c-0.811-0.256-1.622-0.768-2.432-1.532c-0.813-0.771-1.494-1.729-2.049-2.884
	c-0.563-1.145-0.923-2.45-1.094-3.899c-0.173-1.491-0.021-3.094,0.446-4.801c0.471-1.664,1.064-2.941,1.792-3.841
	c0.771-0.938,1.516-1.643,2.24-2.111c0.811-0.513,1.664-0.813,2.561-0.896c1.108-0.085,2.006,0.043,2.688,0.384
	c0.725,0.3,1.318,0.685,1.792,1.152c0.384,0.427,0.682,0.875,0.896,1.344c0.214,0.428,0.319,0.917,0.319,1.473
	c0.042,0.557-0.086,1.194-0.385,1.919C706.805,82.835,706.38,83.134,705.823,83.134z"/>
<path fill="#282828" d="M22.523,173.706l0.018,0.006l0.016,0.006c4.852,1.75,10.07,2.615,15.655,2.615
	c6.823,0,12.939-1.193,18.302-3.641l0.016-0.004c5.396-2.498,9.881-6.021,13.412-10.574l1.146-1.479l-17.28-15.42l-1.313,1.658
	c-1.849,2.322-3.865,4.098-6.054,5.363c-2.033,1.148-4.373,1.754-7.067,1.754c-2.149,0-4.036-0.354-5.688-1.012
	c-1.646-0.66-3.063-1.613-4.271-2.869c-1.146-1.26-2.068-2.785-2.754-4.605c-0.677-1.859-1.026-3.959-1.026-6.313
	s0.354-4.42,1.022-6.209l0.004-0.012l0.004-0.01c0.688-1.891,1.606-3.439,2.75-4.691c1.203-1.256,2.621-2.209,4.271-2.869
	c1.652-0.654,3.539-1.008,5.688-1.008c2.683,0,5.012,0.621,7.042,1.828l0.024,0.02l0.023,0.02c2.169,1.199,4.188,2.938,6.023,5.254
	l1.313,1.658L71.07,117.76l-1.127-1.477c-3.532-4.617-8.021-8.15-13.438-10.594c-5.354-2.438-11.475-3.634-18.297-3.634
	c-5.593,0-10.82,0.896-15.672,2.716c-4.776,1.752-8.975,4.283-12.565,7.605l-0.005,0.008l-0.008,0.01
	c-3.53,3.324-6.277,7.27-8.239,11.797c-1.978,4.563-2.942,9.572-2.942,15.002c0,5.434,0.975,10.438,2.942,15.002
	c1.962,4.533,4.709,8.477,8.239,11.803l0.008,0.008l0.007,0.006C13.562,169.329,17.753,171.889,22.523,173.706z M39.362,155.997
	c3.008,0,5.689-0.678,8.063-2.021c1.914-1.104,3.688-2.557,5.325-4.338c0.441-0.479,0.876-0.986,1.299-1.521l14.311,12.769
	c-3.328,4.289-7.559,7.617-12.679,9.984c-5.056,2.305-10.88,3.457-17.472,3.457c-5.376,0-10.368-0.832-14.978-2.496
	c-4.544-1.729-8.519-4.16-11.902-7.298c-3.328-3.142-5.922-6.854-7.776-11.142s-2.777-9.021-2.777-14.207s0.929-9.922,2.777-14.207
	c1.854-4.289,4.448-8,7.776-11.139c3.392-3.137,7.358-5.535,11.902-7.197c4.604-1.729,9.602-2.593,14.978-2.593
	c6.592,0,12.416,1.15,17.472,3.456c5.12,2.307,9.351,5.633,12.679,9.982l-14.311,12.77c-0.423-0.531-0.854-1.039-1.301-1.521
	c-1.638-1.771-3.41-3.188-5.323-4.238c-2.368-1.408-5.058-2.111-8.063-2.111c-2.368,0-4.519,0.385-6.438,1.15
	c-1.92,0.77-3.584,1.889-4.985,3.355c-1.351,1.476-2.398,3.27-3.168,5.377c-0.771,2.051-1.152,4.354-1.152,6.91
	c0,2.563,0.386,4.896,1.152,7.01c0.77,2.052,1.817,3.813,3.168,5.275c1.401,1.479,3.065,2.598,4.985,3.359
	C34.848,155.605,36.994,155.997,39.362,155.997z"/>
<path fill="#282828" d="M108.713,122.395c-2.105,0-4.097,0.385-5.945,1.148c-1.792,0.771-3.396,1.893-4.806,3.359
	c-1.346,1.408-2.396,3.17-3.168,5.279c-0.771,2.049-1.146,4.385-1.146,7.008s0.384,4.992,1.146,7.104
	c0.771,2.049,1.822,3.813,3.168,5.281c1.406,1.404,3.014,2.496,4.806,3.264c1.854,0.771,3.84,1.152,5.945,1.152
	c2.111,0,4.063-0.387,5.854-1.152c1.854-0.768,3.456-1.854,4.801-3.264c1.407-1.475,2.496-3.232,3.265-5.281
	c0.771-2.107,1.151-4.479,1.151-7.104c0-2.623-0.385-4.959-1.151-7.008c-0.769-2.111-1.854-3.871-3.265-5.279
	c-1.345-1.477-2.943-2.592-4.801-3.359C112.777,122.777,110.824,122.395,108.713,122.395z M113.806,152.995l-0.019,0.004
	l-0.01-0.019c-0.009,0.004-0.017,0.006-0.021,0.013l0.026,0.006l-0.013,0.006c-1.521,0.649-3.203,0.99-5.066,0.99
	c-1.854,0-3.574-0.336-5.176-0.996c-1.535-0.66-2.909-1.59-4.131-2.806h0.004l-0.004-0.004v0.004l-0.034-0.039
	c-0.396-0.403-0.729-0.834-1.006-1.271c-0.671-0.967-1.238-2.057-1.697-3.276c-0.674-1.854-1.021-3.981-1.021-6.41
	c0-2.435,0.354-4.521,1.021-6.31l0.005-0.01l0.003-0.011c0.688-1.896,1.607-3.401,2.733-4.581v0.1l0.036-0.039l-0.036-0.061
	c1.229-1.283,2.603-2.242,4.131-2.898c1.602-0.655,3.315-0.991,5.176-0.991c1.863,0,3.545,0.338,5.066,0.987l0.014,0.004
	l0.019,0.009c1.587,0.653,2.938,1.604,4.087,2.856l0.024,0.033l0.031,0.028c1.177,1.181,2.117,2.681,2.8,4.551l0.003,0.013
	l0.011,0.01c0.668,1.783,1.021,3.875,1.021,6.31c0,2.429-0.354,4.556-1.027,6.41c-0.681,1.813-1.628,3.33-2.833,4.592l-0.001,0.003
	C116.777,151.399,115.411,152.329,113.806,152.995z"/>
<path fill="#282828" d="M92.851,173.61l0.008,0.004c4.914,1.813,10.207,2.721,15.855,2.721c5.723,0,11.02-0.896,15.87-2.725
	c4.835-1.813,9.063-4.377,12.654-7.695l0.009-0.012l0.008-0.006c3.587-3.391,6.367-7.354,8.33-11.889
	c2.04-4.561,3.049-9.51,3.049-14.814c0-5.365-1.007-10.318-3.052-14.824c-1.964-4.529-4.744-8.467-8.334-11.785
	c-3.597-3.393-7.824-5.988-12.664-7.807c-4.854-1.819-10.147-2.719-15.87-2.719c-5.648,0-10.941,0.897-15.855,2.715l-0.008,0.004
	c-4.846,1.813-9.069,4.414-12.663,7.807c-3.597,3.316-6.401,7.254-8.435,11.777l-0.006,0.016c-1.979,4.504-2.952,9.453-2.952,14.816
	c0,5.311,0.979,10.252,2.947,14.813l0.006,0.016l0.005,0.012c2.025,4.521,4.836,8.484,8.421,11.869l0.014,0.006l0.007,0.012
	C83.79,169.234,88.016,171.797,92.851,173.61z M146.64,139.194c0,5.061-0.96,9.729-2.88,14.02
	c-1.854,4.289-4.479,8.033-7.872,11.229c-3.392,3.141-7.392,5.563-12,7.295c-4.604,1.729-9.664,2.598-15.168,2.598
	c-5.438,0-10.496-0.865-15.167-2.598c-4.604-1.729-8.604-4.154-12-7.295c-3.395-3.195-6.049-6.939-7.969-11.229
	c-1.854-4.287-2.783-8.959-2.783-14.02c0-5.115,0.934-9.791,2.783-14.021c1.92-4.287,4.574-8,7.969-11.137
	c3.396-3.199,7.396-5.664,12-7.396c4.671-1.728,9.729-2.591,15.167-2.591c5.504,0,10.563,0.865,15.168,2.591
	c4.608,1.73,8.608,4.193,12,7.396c3.396,3.137,6.021,6.85,7.872,11.137C145.68,129.403,146.64,134.079,146.64,139.194z"/>
<path fill="#282828" d="M157.009,148.055l-8.91,20.164l1.515,0.91c3.608,2.188,8.143,3.912,13.521,5.227
	c5.41,1.316,11.009,1.979,16.794,1.979c7.156,0,13.247-1.049,18.188-3.246l0.012-0.004l0.011-0.004
	c4.858-2.229,8.636-5.191,11.188-8.947c2.591-3.776,3.896-7.944,3.896-12.455c0-3.768-0.719-7.071-2.271-9.817
	c-1.495-2.638-3.502-4.787-6.007-6.438c-2.327-1.574-4.891-2.832-7.662-3.778c-2.711-0.929-5.456-1.652-8.234-2.187
	c-2.617-0.511-5.043-0.988-7.275-1.437c-2.063-0.431-3.642-0.927-4.777-1.461c-0.896-0.479-0.911-0.828-0.911-0.996
	c0-0.271,0.069-0.521,0.292-0.813c0.248-0.254,0.78-0.604,1.835-0.918c1.015-0.306,2.521-0.492,4.604-0.492
	c2.755,0,5.586,0.392,8.501,1.181l0.015,0.004c2.981,0.791,6.092,1.983,9.313,3.604l1.92,0.961l7.393-17.793v13.877h19.681v49.631
	h26.656v-49.639h19.68v-21.571h-66.017v4.927l-0.613-0.35c-3.714-2.094-7.872-3.63-12.462-4.628
	c-4.56-0.99-9.183-1.483-13.864-1.483c-7.097,0-13.182,1.051-18.18,3.239l-0.013,0.004c-4.877,2.165-8.688,5.136-11.305,8.952
	l-0.005,0.006c-2.53,3.73-3.802,7.896-3.802,12.451c0,3.828,0.717,7.188,2.268,9.992l0.007,0.01l0.009,0.014
	c1.486,2.625,3.458,4.775,5.896,6.43l0.015,0.014l0.015,0.006c2.386,1.563,4.971,2.826,7.747,3.771l0.008,0.005l0.008,0.004
	c2.751,0.914,5.479,1.674,8.172,2.266l0.021,0.005l0.021,0.008c2.604,0.509,4.979,1.015,7.125,1.521l0.032,0.008l0.032,0.008
	c2.139,0.432,3.729,0.954,4.841,1.538c0.879,0.462,0.94,0.832,0.94,1.104c0,0.188-0.046,0.354-0.23,0.561
	c-0.243,0.191-0.793,0.484-1.86,0.759c-1.018,0.213-2.541,0.334-4.642,0.334c-3.51,0-7.165-0.515-10.976-1.556
	c-3.763-1.11-7.153-2.557-10.197-4.315L157.009,148.055z M196.624,133.53c2.624,0.896,5.022,2.08,7.198,3.557
	c2.24,1.471,4.032,3.393,5.376,5.76c1.346,2.367,2.018,5.313,2.018,8.832c0,4.098-1.186,7.871-3.552,11.328
	c-2.306,3.393-5.762,6.145-10.368,8.256c-4.604,2.049-10.396,3.072-17.376,3.072c-5.632,0-11.072-0.645-16.32-1.92
	c-5.241-1.281-9.563-2.945-12.96-4.992l7.303-16.518c0.568,0.334,1.155,0.656,1.76,0.971c2.729,1.42,5.688,2.604,8.896,3.547
	c3.975,1.088,7.813,1.631,11.521,1.631c2.178,0,3.872-0.127,5.09-0.383c1.278-0.318,2.207-0.734,2.782-1.248
	c0.576-0.576,0.857-1.248,0.857-2.021c0-1.215-0.672-2.176-2.016-2.879c-1.346-0.705-3.138-1.275-5.376-1.729
	c-2.178-0.514-4.576-1.021-7.2-1.535c-2.624-0.576-5.273-1.313-7.968-2.209c-2.624-0.896-5.058-2.08-7.298-3.551
	c-2.176-1.475-3.938-3.395-5.278-5.764c-1.346-2.438-2.018-5.438-2.018-9.021c0-4.16,1.146-7.938,3.456-11.328
	c2.368-3.455,5.854-6.207,10.464-8.256c4.672-2.048,10.466-3.07,17.376-3.07c4.544,0,9.021,0.479,13.438,1.438
	c4.416,0.96,8.391,2.433,11.904,4.417l-6.813,16.416c-0.604-0.305-1.207-0.594-1.813-0.867c-2.688-1.236-5.324-2.195-7.892-2.877
	c-3.071-0.832-6.08-1.248-9.022-1.248c-2.178,0-3.897,0.189-5.186,0.576c-1.279,0.383-2.208,0.896-2.784,1.533
	c-0.512,0.643-0.77,1.346-0.77,2.111c0,1.146,0.674,2.074,2.018,2.779c1.346,0.645,3.104,1.188,5.28,1.631
	c2.233,0.449,4.672,0.934,7.296,1.441C191.344,131.93,194,132.633,196.624,133.53z M231.612,172.795v-49.631h-19.686v-17.569h62.021
	v17.567h-19.679v49.631L231.612,172.795L231.612,172.795z"/>
<path fill="#282828" d="M277.833,103.595v71.2h26.654v-16.896h3.104l11.397,16.896h49.48l4.502-11.711h22.814l4.502,11.711h27.854
	l-31.123-71.2h-24.883l-28.382,64.929l-10.733-15.729c3.146-1.92,5.729-4.354,7.704-7.297l0.004-0.013l0.004-0.006
	c2.743-4.146,4.076-9.021,4.076-14.543c0-5.519-1.332-10.394-4.063-14.535c-2.729-4.188-6.601-7.375-11.521-9.563
	c-4.854-2.188-10.559-3.245-17.041-3.245L277.833,103.595L277.833,103.595z M308.662,155.9h-6.173v16.896h-22.654v-67.2h32.351
	c6.272,0,11.688,1.022,16.229,3.071c4.604,2.047,8.159,4.992,10.647,8.832c2.496,3.773,3.744,8.256,3.744,13.438
	c0,5.188-1.248,9.664-3.744,13.438c-1.817,2.715-4.217,4.969-7.173,6.76c-0.563,0.344-1.146,0.666-1.755,0.977l14.002,20.521
	l29.305-67.038h22.271l29.375,67.2h-23.422l-4.5-11.711h-25.563l-4.502,11.711h-47.05L308.662,155.9z"/>
<path fill="#282828" d="M414.551,103.595l30.109,71.2h24.922l27.346-64.666v64.666h59.871v-21.088h-33.6v-4.832h28.416v-20.32
	h-28.416v-3.867h32.352v-21.093h-82.479l-15.104,35.985l-14.671-35.985H414.551z M521.2,146.875v8.832h33.6v17.088h-55.871v-67.2
	h54.623v17.091H521.2v7.867h28.416v16.32L521.2,146.875L521.2,146.875z M441.954,105.595l15.982,39.218l16.457-39.218h22.271
	l-28.416,67.198h-22.271l-28.416-67.198H441.954z"/>
<path fill="#282828" d="M561.516,103.595v71.2h56.992v-21.564h-30.333v-49.636H561.516z M586.176,105.595v49.634h30.336v17.564
	h-52.992v-67.198H586.176z"/>
<path fill="#282828" d="M317.923,126.506c-1.477-1.404-3.776-2.109-6.912-2.109h-8.256v15.742h8.256
	c3.136,0,5.438-0.701,6.912-2.105c1.531-1.406,2.304-3.326,2.304-5.764C320.225,129.834,319.454,127.917,317.923,126.506z
	 M316.57,136.553l-0.02,0.016l-0.02,0.021c-0.938,0.896-2.643,1.563-5.525,1.563h-6.256v-11.744h6.256
	c2.891,0,4.587,0.656,5.525,1.559l0.02,0.018l0.02,0.021c1.052,0.965,1.651,2.313,1.651,4.279
	C318.225,134.241,317.619,135.588,316.57,136.553z"/>
<path fill="#282828" d="M384.623,127.838l-6.506,16.926h13.012L384.623,127.838z M384.621,133.385l3.596,9.354h-7.188
	L384.621,133.385z"/>
</svg>
