<svg version="1.1" id="Layer_1" xmlns="http://www.w3.org/2000/svg" x="0px" y="0px"
	 width="153px" height="208px" viewBox="0 0 153 208" enable-background="new 0 0 153 208" xml:space="preserve">
<path fill="none" stroke="#000000" d="M152.5,171.5l-76,35L1,171.5v-159C1,12.5,37,1,76.5,1s76,11.5,76,11.5V171.5z"/>
<path fill="#06510E" stroke="#000000" d="M142,162.684L76.786,193L12,162.684V24.961c0,0,30.891-9.961,64.786-9.961
	C110.68,15,142,24.961,142,24.961V162.684z"/>
<path fill="#FF7C03" d="M25.629,111.281c0.766,0,1.5-0.121,2.203-0.363c0.711-0.242,1.34-0.547,1.887-0.914
	c0.547-0.375,0.988-0.766,1.324-1.172l-0.41-0.891c-0.555,0.508-1.195,0.93-1.922,1.266c-0.719,0.328-1.445,0.492-2.18,0.492
	c-0.953,0-1.832-0.246-2.637-0.738c-0.805-0.5-1.453-1.23-1.945-2.191c-0.484-0.969-0.727-2.129-0.727-3.48
	c0-1.227,0.191-2.297,0.574-3.211s0.902-1.613,1.559-2.098c0.664-0.492,1.406-0.738,2.227-0.738c0.719,0,1.328,0.109,1.828,0.328
	c0.508,0.219,0.906,0.516,1.195,0.891l0.492,2.578l1.031,0.152l0.363-3.89c-0.531-0.406-1.164-0.703-1.898-0.891
	s-1.516-0.281-2.344-0.281c-1.68,0-3.086,0.406-4.219,1.219c-1.133,0.805-1.969,1.82-2.508,3.047
	c-0.539,1.218-0.809,2.453-0.809,3.703c0,1.5,0.316,2.792,0.949,3.878c0.641,1.086,1.488,1.91,2.543,2.473
	C23.262,111.004,24.402,111.281,25.629,111.281z M38.004,111.316c1.563,0,2.918-0.344,4.066-1.031s2.023-1.605,2.625-2.754
	c0.602-1.156,0.902-2.418,0.902-3.785c0-1.383-0.273-2.656-0.82-3.82c-0.547-1.172-1.336-2.102-2.367-2.789
	c-1.023-0.695-2.219-1.043-3.586-1.043c-1.531,0-2.867,0.324-4.008,0.973c-1.141,0.641-2.02,1.539-2.637,2.695
	c-0.609,1.156-0.914,2.484-0.914,3.984c0,1.406,0.281,2.688,0.844,3.844c0.563,1.148,1.355,2.059,2.379,2.73
	C35.512,110.984,36.684,111.316,38.004,111.316z M38.262,97.219c1.063,0,1.949,0.344,2.66,1.031s1.234,1.57,1.57,2.648
	c0.336,1.079,0.504,2.207,0.504,3.387c0,1.68-0.328,3.066-0.984,4.16c-0.656,1.086-1.797,1.629-3.422,1.629
	c-1.07,0-1.961-0.328-2.672-0.984c-0.703-0.664-1.223-1.527-1.559-2.59c-0.328-1.063-0.492-2.203-0.492-3.422
	C33.868,99.172,35.333,97.219,38.262,97.219z M50.274,111.281c0.898,0,1.746-0.184,2.543-0.551c0.805-0.375,1.449-0.902,1.934-1.582
	c0.492-0.68,0.738-1.457,0.738-2.332c0-0.625-0.16-1.168-0.48-1.629s-0.711-0.848-1.172-1.161c-0.461-0.32-1.082-0.687-1.863-1.101
	c-0.75-0.406-1.344-0.754-1.781-1.043c-0.43-0.289-0.797-0.645-1.102-1.067c-0.297-0.421-0.445-0.914-0.445-1.476
	c0-0.734,0.199-1.289,0.598-1.664s0.91-0.563,1.535-0.563c0.289,0,0.574,0.063,0.855,0.188c0.281,0.117,0.52,0.266,0.715,0.445
	c0.203,0.172,0.344,0.332,0.422,0.48l0.293,2.238l1.16,0.14c0.023-0.335,0.066-0.878,0.129-1.628s0.105-1.309,0.129-1.676
	c-0.938-0.781-2.039-1.172-3.305-1.172c-0.789,0-1.531,0.164-2.227,0.492s-1.258,0.805-1.688,1.43s-0.645,1.363-0.645,2.215
	c0,0.734,0.176,1.371,0.527,1.91c0.359,0.539,0.789,0.984,1.289,1.336c0.508,0.343,1.172,0.734,1.992,1.171
	c0.664,0.359,1.184,0.664,1.559,0.914c0.383,0.25,0.703,0.547,0.961,0.891c0.258,0.336,0.387,0.719,0.387,1.148
	c0,0.547-0.141,1.004-0.422,1.371c-0.273,0.367-0.625,0.641-1.055,0.82c-0.422,0.18-0.855,0.27-1.301,0.27
	c-0.516,0-0.992-0.113-1.43-0.34c-0.43-0.227-0.758-0.504-0.984-0.832l-0.457-2.203l-1.195-0.164l-0.152,3.363
	c0.398,0.391,0.949,0.715,1.652,0.973C48.7,111.152,49.462,111.281,50.274,111.281z M55.572,100.195l1.066,0.153l0.621-2.848h3.457
	v12.082l-1.98,0.551L58.654,111h6.316l0.164-0.938l-2.168-0.398V97.5h3.574l0.445,2.707l1.113,0.176l0.398-3.961h-13.02
	L55.572,100.195z M74.979,110.027l-2.203-0.504v-4.816h2.039l1.863,3.328c0.563,1.008,1.18,1.797,1.852,2.367
	c0.68,0.563,1.453,0.844,2.32,0.844c0.492,0,0.961-0.078,1.406-0.234l0.176-0.797l-0.387-0.117
	c-0.469-0.141-0.871-0.332-1.207-0.574c-0.336-0.25-0.652-0.555-0.949-0.914s-0.723-0.926-1.277-1.699l-2.109-2.918v-0.012
	c0.711-0.25,1.316-0.593,1.816-1.031c0.508-0.437,0.891-0.918,1.148-1.441c0.266-0.524,0.398-1.043,0.398-1.559
	c0-1.297-0.516-2.227-1.547-2.789c-1.023-0.563-2.469-0.844-4.336-0.844c-0.781,0-1.598,0.047-2.449,0.141s-1.816,0.227-2.895,0.398
	l-0.117,0.902l2.004,0.352v11.473l-1.957,0.551L68.439,111h6.422L74.979,110.027z M72.775,97.359c0.07-0.008,0.234-0.02,0.492-0.035
	c0.266-0.016,0.57-0.023,0.914-0.023c0.68,0,1.262,0.141,1.746,0.422c0.492,0.281,0.867,0.672,1.125,1.172s0.387,1.07,0.387,1.71
	c0,0.774-0.227,1.418-0.68,1.934s-1.008,0.883-1.664,1.102h-2.32V97.359z M86.779,111l0.129-0.938l-2.18-0.516l1.184-3.609h4.91
	l1.277,3.551l-2.004,0.645L89.955,111h6.035l0.105-0.938l-1.605-0.516l-4.57-13.406l-1.77,0.363l-5.004,12.984l-1.746,0.645
	L81.295,111H86.779z M88.537,98.883l1.945,5.859h-4.125L88.537,98.883z M97.573,97.805l4.899,13.477l1.78-0.328l4.979-13.195
	l1.547-0.445l0.082-0.891h-5.332l-0.082,0.891l2.134,0.492l-3.75,10.254l-3.668-10.301l1.991-0.445l0.117-0.891h-6.304l-0.117,0.891
	L97.573,97.805z M113.382,97.805v11.777l-1.957,0.551L111.331,111h11.896l0.351-3.668l-0.972-0.152l-1.149,2.695h-5.8v-5.707h3.211
	l0.398,2.051l0.996-0.152l0.398-4.559l-1.114,0.164l-0.491,1.406h-3.398V97.5h5.519l0.481,2.52l1.019,0.152l0.363-3.75h-11.66
	l-0.129,0.891L113.382,97.805z M135.074,111l0.434-3.879l-0.996-0.152l-1.535,2.906h-5.18V97.863l2.004-0.551l0.117-0.891h-6.445
	l-0.152,0.891l2.203,0.598v11.672l-1.945,0.551L123.473,111H135.074z"/>
<path fill="#D9D9D9" d="M53,152l1.347,4.146h4.359l-3.527,2.562l1.347,4.146L53,160.292l-3.527,2.562l1.347-4.146l-3.527-2.562
	h4.359L53,152z"/>
<path fill="#D9D9D9" d="M65,152l1.347,4.146h4.359l-3.527,2.562l1.347,4.146L65,160.292l-3.527,2.562l1.347-4.146l-3.527-2.562
	h4.359L65,152z"/>
<path fill="#D9D9D9" d="M77,152l1.348,4.146h4.359l-3.527,2.562l1.348,4.146L77,160.292l-3.527,2.562l1.347-4.146l-3.527-2.562
	h4.359L77,152z"/>
<path fill="#D9D9D9" d="M89,152l1.348,4.146h4.359l-3.527,2.562l1.348,4.146L89,160.292l-3.527,2.562l1.348-4.146l-3.527-2.562
	h4.359L89,152z"/>
<path fill="#D9D9D9" d="M101,152l1.348,4.146h4.358l-3.526,2.562l1.348,4.146L101,160.292l-3.527,2.562l1.348-4.146l-3.527-2.562
	h4.359L101,152z"/>
<line fill="none" stroke="#000000" stroke-width="2" x1="44" y1="140" x2="110" y2="140"/>
</svg>
